# xmcd
#
# Track frame offsets:
#	150
#	6932
#	26010
#	40745
#	58885
#	73532
#	94235
#	114487
#	133877
#	155235
#	179875
#	202255
#
# Disc length: 2952 seconds
#
# Revision: 1
# Processed by: cddbd v1.5.1PL0 Copyright (c) Steve Scherf et al.
# Submitted via: CDex 1.50Beta5
#
DISCID=ba0b860c
DTITLE=スターダスト・レビュー - RENDEZ-VOUS
DYEAR=2002
DGENRE=Pop
TTITLE0=Cinema Bleu
TTITLE1=流星物語
TTITLE2=Whisky A GO-GO
TTITLE3=Danger Lady
TTITLE4=言葉じゃいえないLonelinees
TTITLE5=エトランゼ
TTITLE6=One Night Rose
TTITLE7=君のBirthday
TTITLE8=Just A Minute Of Your Time
TTITLE9=Stay My Blue-君が恋しくて
TTITLE10=夏の終わりに
TTITLE11=流星物語(Live)
EXTD=
EXTT0=
EXTT1=
EXTT2=
EXTT3=
EXTT4=
EXTT5=
EXTT6=
EXTT7=
EXTT8=
EXTT9=
EXTT10=
EXTT11=
PLAYORDER=
